<svg width="145" height="152" viewBox="0 0 145 152" fill="none" xmlns="http://www.w3.org/2000/svg">
<path d="M8.59257 122.469C10.0528 118.346 9.43586 114.689 8.59254 109.693C7.5384 103.447 5.78149 89.4244 14.6831 80.4686C21.8045 73.3039 29.9097 69.6273 33.0721 68.6846" stroke="black" stroke-width="2" stroke-linecap="round"/>
<path d="M26.5442 122.297C27.0534 120.513 32.0599 112.756 31.4233 107.523C31.1943 106.034 31.3546 102.61 34.5155 100.823" stroke="black" stroke-width="2" stroke-linecap="round"/>
<path d="M23.6934 87.2515C26.0984 83.3004 32.6262 78.1469 37.7798 77.288C42.9334 76.4291 43.3891 79.9326 42.7246 81.4201C41.7279 83.6512 39.5585 86.1173 35.2198 90.8144C30.9215 95.4679 28.5749 104.084 28.3013 108.194" stroke="black" stroke-width="2" stroke-linecap="round"/>
<path d="M108.863 73.3472C105.523 70.4809 97.2163 65.4079 90.7095 68.0465C90.1201 68.2821 88.8942 69.3894 88.7056 71.9337" stroke="black" stroke-width="2" stroke-linecap="round"/>
<path d="M101.856 98.0748C95.3278 90.688 91.5485 84.8472 92.4075 77.4604C92.8862 73.3433 95.2574 71.6454 97.4283 73.7012C100.31 76.4297 102.543 79.8654 105.68 81.24C106.295 81.5262 108.246 82.0987 111.132 82.0987" stroke="black" stroke-width="2" stroke-linecap="round"/>
<path d="M125.837 114.575C125.522 113.319 124.87 109.298 125.247 106.094C125.719 102.089 125.292 86.9721 118.691 82.6138" stroke="black" stroke-width="2" stroke-linecap="round"/>
<path d="M124.875 74.7112L84.4388 71.7996C84.2164 71.7836 83.9867 71.8052 83.7727 71.8678C78.1539 73.5107 80.2577 76.6369 82.3295 78.4523C82.6223 78.7089 82.9939 78.8528 83.3816 78.8881L92.2359 79.693" stroke="black" stroke-width="2" stroke-linecap="round"/>
<path d="M124.703 82.9572L111.127 82.0674" stroke="black" stroke-width="2" stroke-linecap="round"/>
<ellipse cx="124.634" cy="78.8197" rx="3.60751" ry="4.9818" fill="black"/>
<path d="M119.758 81.6727C117.925 78.7039 119.27 76.3083 120.556 75.1307C120.877 74.8365 121.314 74.7233 121.749 74.7436L124.084 74.852C125.185 74.9032 126.038 75.8369 125.989 76.9389L125.815 80.8341C125.764 81.9856 124.752 82.8555 123.606 82.7339L121.098 82.4679C120.554 82.4101 120.045 82.1385 119.758 81.6727Z" fill="black"/>
<path d="M80.5132 74.8863C80.4133 75.7744 79.4329 76.2661 78.6613 75.8151C77.7366 75.2746 77.8903 73.894 78.9112 73.57C79.7643 73.2994 80.6133 73.997 80.5132 74.8863Z" fill="black"/>
<path d="M34.3739 77.9759L32.7288 32.6027C32.7286 25.9061 33.9744 14.5575 47.8881 14.7455C61.8018 14.9334 69.354 14.8238 71.3909 14.7455" stroke="black" stroke-width="2" stroke-linecap="round"/>
<path d="M87.3728 14.7461H110.758C117.221 14.8636 122.745 17.6831 122.745 28.4915C122.745 39.2998 122.425 61.8946 121.955 73.6819" stroke="black" stroke-width="2" stroke-linecap="round"/>
<path d="M102.371 129.684C92.735 130.389 66.9644 132.267 51.4134 132.933C44.8326 132.933 36.113 132.087 35.0789 120.245L34.3738 91.9316" stroke="black" stroke-width="2" stroke-linecap="round"/>
<circle cx="79.2829" cy="9.41766" r="4.32537" stroke="black" stroke-width="2"/>
<path d="M71.9966 12.3252C72.8396 14.7639 71.6453 16.546 68.9522 17.1323C67.6643 17.4127 65.8611 17.4371 62.3952 18.6564C58.0629 20.1806 57.2433 24.5187 57.1262 28.2706C57.0325 31.2721 58.7655 32.2569 61.8098 32.3742C70.6696 32.3351 89.6459 32.6087 94.712 32.6087C99.9811 32.6087 100.747 30.6155 100.918 29.3258C101.761 22.9476 99.5127 20.3907 97.5222 19.4772C96.5855 19.0473 93.8456 17.9764 90.3797 17.1323C86.9138 16.2882 86.2897 15.1391 86.6328 13.4976C87.4759 9.4644 86.9841 6.18936 86.6328 5.056C86.2425 3.49272 83.9632 0.506871 77.9682 1.06965C70.4744 1.77312 70.9428 9.27684 71.9966 12.3252Z" stroke="black" stroke-width="2" stroke-linecap="round"/>
<path d="M113.022 72.8218L113.468 29.36C113.468 28.4217 112.937 26.7798 110.77 26.7798C108.542 26.7798 103.537 26.858 101.269 26.7798" stroke="black" stroke-width="2" stroke-linecap="round"/>
<path d="M56.5759 26.7802H45.784C44.6109 26.663 42.3587 27.3432 42.7341 31.0024C43.1094 34.6616 44.9237 91.4023 45.784 119.315C45.7449 120.723 46.3705 123.491 49.1858 123.303C51.3276 123.16 84.6566 121.283 104.605 120.407" stroke="black" stroke-width="2" stroke-linecap="round"/>
<path d="M116.286 73.3379L116.904 30.1672C116.904 28.8746 116.341 26.9943 113.15 27.4644" stroke="black" stroke-width="2" stroke-linecap="round"/>
<path d="M43.7013 27.1123C42.5282 27.1123 39.8302 27.1123 39.9473 30.1676C40.0599 33.1039 41.1204 63.1725 41.4724 77.1175" stroke="black" stroke-width="2" stroke-linecap="round"/>
<path d="M41.4724 83.8706L42.5282 120.535C42.6455 121.828 43.1148 123.708 48.7457 123.238" stroke="black" stroke-width="2" stroke-linecap="round"/>
<path d="M55.061 47.0386H77.0497" stroke="black" stroke-width="2" stroke-linecap="round"/>
<path d="M55.2083 54.8389L102.68 54.6039" stroke="black" stroke-width="2" stroke-linecap="round"/>
<path d="M55.3259 62.7124L92.5751 62.3599" stroke="black" stroke-width="2" stroke-linecap="round"/>
<path d="M55.6836 74.9401L74.0091 74.1106" stroke="black" stroke-width="2" stroke-linecap="round"/>
<path d="M117.661 74.1968C116.802 75.8001 114.912 77.9761 116.973 82.0989" stroke="black" stroke-width="2" stroke-linecap="round"/>
<path d="M90.3463 93.2983C89.2011 94.6615 88.5597 98.556 95.1563 103.229C98.4203 105.347 105.189 111.784 106.151 120.579" stroke="black" stroke-width="2" stroke-linecap="round"/>
<path d="M88.6282 79.5215C88.0144 80.6724 87.745 82.8873 89.659 85.0092C90.6019 86.0545 92.0747 87.0772 94.2972 87.939" stroke="black" stroke-width="2" stroke-linecap="round"/>
<path d="M89.6592 85.0088C88.4312 86.7851 87.3115 90.4276 90.3464 93.2973C91.1323 94.0404 93.7429 95.4189 95.1564 96.0125" stroke="black" stroke-width="2" stroke-linecap="round"/>
<path d="M113.515 150.645C109.85 142.112 104.719 123.64 113.515 118.005C124.509 110.962 138.767 126.938 143.749 140.681" stroke="black" stroke-width="2" stroke-linecap="round"/>
<path d="M1.46362 143.942C2.32255 135.925 8.30072 119.563 18.4705 121.625C28.6402 123.686 31.4117 142.067 31.5262 151" stroke="black" stroke-width="2" stroke-linecap="round"/>
</svg>
